<svg xmlns="http://www.w3.org/2000/svg" viewBox="0 0 400 350" fill="none">
  <rect width="400" height="350" fill="#F0FAF4" rx="12"/>
  <!-- Shield -->
  <g transform="translate(130,30)">
    <path d="M70 0L140 30V100C140 155 70 190 70 190C70 190 0 155 0 100V30Z" fill="#1B4332"/>
    <path d="M70 10L130 37V100C130 148 70 180 70 180C70 180 10 148 10 100V37Z" fill="#2D6A4F"/>
    <!-- Euro symbol -->
    <text x="70" y="100" font-family="Urbanist,sans-serif" font-size="60" fill="#F4A261" text-anchor="middle" font-weight="700">€</text>
    <!-- Stars around euro -->
    <circle cx="70" cy="35" r="3" fill="#F4A261"/>
    <circle cx="45" cy="42" r="3" fill="#F4A261"/>
    <circle cx="95" cy="42" r="3" fill="#F4A261"/>
    <circle cx="38" cy="65" r="3" fill="#F4A261"/>
    <circle cx="102" cy="65" r="3" fill="#F4A261"/>
  </g>
  <!-- Aid cards -->
  <g transform="translate(20,240)">
    <rect x="0" y="0" width="85" height="55" rx="6" fill="white" stroke="#52B788" stroke-width="1.5"/>
    <text x="42" y="20" font-family="Inter,sans-serif" font-size="9" fill="#1B4332" text-anchor="middle" font-weight="600">MaPrimeRénov'</text>
    <text x="42" y="40" font-family="Urbanist,sans-serif" font-size="16" fill="#F4A261" text-anchor="middle" font-weight="700">10 000€</text>
  </g>
  <g transform="translate(112,240)">
    <rect x="0" y="0" width="85" height="55" rx="6" fill="white" stroke="#52B788" stroke-width="1.5"/>
    <text x="42" y="20" font-family="Inter,sans-serif" font-size="9" fill="#1B4332" text-anchor="middle" font-weight="600">CEE</text>
    <text x="42" y="40" font-family="Urbanist,sans-serif" font-size="16" fill="#F4A261" text-anchor="middle" font-weight="700">4 000€</text>
  </g>
  <g transform="translate(204,240)">
    <rect x="0" y="0" width="85" height="55" rx="6" fill="white" stroke="#52B788" stroke-width="1.5"/>
    <text x="42" y="20" font-family="Inter,sans-serif" font-size="9" fill="#1B4332" text-anchor="middle" font-weight="600">Éco-PTZ</text>
    <text x="42" y="40" font-family="Urbanist,sans-serif" font-size="16" fill="#F4A261" text-anchor="middle" font-weight="700">50 000€</text>
  </g>
  <g transform="translate(296,240)">
    <rect x="0" y="0" width="85" height="55" rx="6" fill="white" stroke="#52B788" stroke-width="1.5"/>
    <text x="42" y="20" font-family="Inter,sans-serif" font-size="9" fill="#1B4332" text-anchor="middle" font-weight="600">Aides locales</text>
    <text x="42" y="40" font-family="Urbanist,sans-serif" font-size="16" fill="#F4A261" text-anchor="middle" font-weight="700">Variable</text>
  </g>
  <!-- Subtitle -->
  <text x="200" y="320" font-family="Inter,sans-serif" font-size="11" fill="#6B7280" text-anchor="middle">Cumulables sous conditions</text>
</svg>
