<svg xmlns="http://www.w3.org/2000/svg" viewBox="0 0 220 40" fill="none">
  <defs>
    <linearGradient id="logoLeafL" x1="24" y1="2" x2="36" y2="16" gradientUnits="userSpaceOnUse">
      <stop offset="0%" stop-color="#95D5B2"/>
      <stop offset="100%" stop-color="#52B788"/>
    </linearGradient>
  </defs>
  <!-- Icon mark -->
  <g>
    <!-- Abstract house/shield shape -->
    <path d="M18 4L4 16V34h28V16L18 4z" fill="white" opacity="0.9"/>
    <!-- Inner window/energy symbol -->
    <rect x="12" y="18" width="12" height="12" rx="2" fill="#52B788" opacity="0.3"/>
    <path d="M18 18v12M12 24h12" stroke="#1B4332" stroke-width="1.5" stroke-linecap="round" opacity="0.5"/>
    <!-- Leaf -->
    <path d="M26 6c3 0 5.5 2 5.5 5 0 2.5-1.5 4.5-3.5 5.2-.8-2.5-2.5-4.2-5-5.2.5-3 2-5 3-5z" fill="url(#logoLeafL)"/>
    <path d="M28 7.5c-.8 1.5-.8 3.5 0 5.2" stroke="white" stroke-width="0.6" fill="none" stroke-linecap="round" opacity="0.7"/>
  </g>
  <!-- Wordmark -->
  <text x="42" y="28" font-family="'Urbanist', sans-serif" font-weight="800" font-size="22" fill="white" letter-spacing="-0.5">Renoventis</text>
</svg>
